# xmcd
#
# Track frame offsets:
# 150
# 15393
# 29365
# 47114
# 62110
# 73903
# 86868
# 100320
# 116072
# 130300
# 142279
# 156423
#
# Disc length: 2194 seconds
#
#
# Revision: 0
# Processed by: cddbd v1.5.2PL0 Copyright (c) Steve Scherf et al.
# Submitted via: FreeRIP 2.951 
#
DISCID=b608900c
DTITLE=Trio Potiguá - Pé na Estrada
DYEAR=2006
DGENRE=Forró
TTITLE0=Pé na Estrada
TTITLE1=Não Tenho Culpa
TTITLE2=Nossa História
TTITLE3=Espelho D'Agua
TTITLE4=Pra Incendiar
TTITLE5=Tenho Esperança
TTITLE6=Conquistar Você
TTITLE7=Noite Linda
TTITLE8=Tento Disfarçar
TTITLE9=Rosto Bonito
TTITLE10=Tudo por Você eu Fiz
TTITLE11=Baião Nosso (Instrumental)
EXTD=
EXTT0=
EXTT1=
EXTT2=
EXTT3=
EXTT4=
EXTT5=
EXTT6=
EXTT7=
EXTT8=
EXTT9=
EXTT10=
EXTT11=
PLAYORDER=
